<mxfile host="app.diagrams.net" modified="2024-05-23T09:09:03.677Z" agent="Mozilla/5.0 (Windows NT 10.0; Win64; x64) AppleWebKit/537.36 (KHTML, like Gecko) Chrome/124.0.0.0 Safari/537.36" etag="2Pfpih_sXYxRzXvjtLAv" version="24.4.6" type="device">
  <diagram name="Page-1" id="0SBXd49LUMcfFHOJyT-W">
    <mxGraphModel dx="1021" dy="746" grid="1" gridSize="10" guides="1" tooltips="1" connect="1" arrows="1" fold="1" page="1" pageScale="1" pageWidth="2336" pageHeight="1654" math="0" shadow="0">
      <root>
        <mxCell id="0" />
        <mxCell id="1" parent="0" />
        <mxCell id="LVzLQ8PIczJLZQD4RkMt-1" value="E74 Group" style="rounded=0;whiteSpace=wrap;html=1;fillColor=default;strokeColor=#FFC933;" parent="1" vertex="1">
          <mxGeometry x="1108" y="590" width="120" height="60" as="geometry" />
        </mxCell>
        <mxCell id="LVzLQ8PIczJLZQD4RkMt-2" value="C9 Group Type (&quot;MÃ©nage&quot;)" style="rounded=0;whiteSpace=wrap;html=1;" parent="1" vertex="1">
          <mxGeometry x="1470" y="590" width="120" height="60" as="geometry" />
        </mxCell>
        <mxCell id="LVzLQ8PIczJLZQD4RkMt-3" value="E42 Identifier&lt;br&gt;&lt;div&gt;(&lt;b&gt;numero_ordre_menages&lt;/b&gt;)&lt;/div&gt;" style="rounded=0;whiteSpace=wrap;html=1;strokeColor=#FF0000;" parent="1" vertex="1">
          <mxGeometry x="1088" y="190" width="160" height="60" as="geometry" />
        </mxCell>
        <mxCell id="LVzLQ8PIczJLZQD4RkMt-44" value="E15 Identifier Assignment" style="rounded=0;whiteSpace=wrap;html=1;strokeColor=#007FFF;" parent="1" vertex="1">
          <mxGeometry x="1108" y="390" width="120" height="60" as="geometry" />
        </mxCell>
        <mxCell id="LVzLQ8PIczJLZQD4RkMt-45" value="" style="endArrow=classic;html=1;rounded=0;entryX=0.5;entryY=0;entryDx=0;entryDy=0;exitX=0.5;exitY=1;exitDx=0;exitDy=0;" parent="1" source="LVzLQ8PIczJLZQD4RkMt-3" target="LVzLQ8PIczJLZQD4RkMt-44" edge="1">
          <mxGeometry width="50" height="50" relative="1" as="geometry">
            <mxPoint x="1290" y="360" as="sourcePoint" />
            <mxPoint x="1290" y="220" as="targetPoint" />
          </mxGeometry>
        </mxCell>
        <mxCell id="LVzLQ8PIczJLZQD4RkMt-5" value="crm:P141 was assigned by" style="rounded=0;whiteSpace=wrap;html=1;strokeColor=#FFFFFF;" parent="1" vertex="1">
          <mxGeometry x="1092" y="300" width="152" height="40" as="geometry" />
        </mxCell>
        <mxCell id="LVzLQ8PIczJLZQD4RkMt-49" value="" style="endArrow=classic;html=1;rounded=0;entryX=0.5;entryY=0;entryDx=0;entryDy=0;exitX=0.5;exitY=1;exitDx=0;exitDy=0;" parent="1" source="LVzLQ8PIczJLZQD4RkMt-44" target="LVzLQ8PIczJLZQD4RkMt-1" edge="1">
          <mxGeometry width="50" height="50" relative="1" as="geometry">
            <mxPoint x="1238" y="430" as="sourcePoint" />
            <mxPoint x="1390" y="430" as="targetPoint" />
          </mxGeometry>
        </mxCell>
        <mxCell id="LVzLQ8PIczJLZQD4RkMt-50" value="crm:P140 assigned attribute to" style="rounded=0;whiteSpace=wrap;html=1;strokeColor=#FFFFFF;" parent="1" vertex="1">
          <mxGeometry x="1108" y="500" width="120" height="40" as="geometry" />
        </mxCell>
        <mxCell id="LVzLQ8PIczJLZQD4RkMt-54" value="Time-Span (&quot;1836&quot;)" style="rounded=0;whiteSpace=wrap;html=1;" parent="1" vertex="1">
          <mxGeometry x="390" y="590" width="120" height="60" as="geometry" />
        </mxCell>
        <mxCell id="LVzLQ8PIczJLZQD4RkMt-55" value="" style="endArrow=classic;html=1;rounded=0;entryX=1;entryY=0.5;entryDx=0;entryDy=0;exitX=0;exitY=0.5;exitDx=0;exitDy=0;" parent="1" source="XeDVgy5xD-qjJG3pRiMW-6" target="LVzLQ8PIczJLZQD4RkMt-54" edge="1">
          <mxGeometry width="50" height="50" relative="1" as="geometry">
            <mxPoint x="420" y="700" as="sourcePoint" />
            <mxPoint x="60" y="709" as="targetPoint" />
          </mxGeometry>
        </mxCell>
        <mxCell id="LVzLQ8PIczJLZQD4RkMt-16" value="crm:P4 has time span" style="rounded=0;whiteSpace=wrap;html=1;strokeColor=#FFFFFF;" parent="1" vertex="1">
          <mxGeometry x="560" y="600" width="120" height="40" as="geometry" />
        </mxCell>
        <mxCell id="XeDVgy5xD-qjJG3pRiMW-2" value="" style="endArrow=classic;html=1;rounded=0;entryX=0;entryY=0.5;entryDx=0;entryDy=0;" parent="1" target="LVzLQ8PIczJLZQD4RkMt-2" edge="1">
          <mxGeometry width="50" height="50" relative="1" as="geometry">
            <mxPoint x="1228" y="619.5" as="sourcePoint" />
            <mxPoint x="1410" y="620" as="targetPoint" />
          </mxGeometry>
        </mxCell>
        <mxCell id="LVzLQ8PIczJLZQD4RkMt-10" value="crm-sup:P7 has group type" style="rounded=0;whiteSpace=wrap;html=1;strokeColor=#FFFFFF;" parent="1" vertex="1">
          <mxGeometry x="1290" y="600" width="120" height="40" as="geometry" />
        </mxCell>
        <mxCell id="XeDVgy5xD-qjJG3pRiMW-5" value="" style="endArrow=classic;html=1;rounded=0;exitX=0;exitY=0.5;exitDx=0;exitDy=0;entryX=1;entryY=0.5;entryDx=0;entryDy=0;" parent="1" source="LVzLQ8PIczJLZQD4RkMt-1" target="XeDVgy5xD-qjJG3pRiMW-6" edge="1">
          <mxGeometry width="50" height="50" relative="1" as="geometry">
            <mxPoint x="670" y="619.5" as="sourcePoint" />
            <mxPoint x="880" y="620" as="targetPoint" />
          </mxGeometry>
        </mxCell>
        <mxCell id="XeDVgy5xD-qjJG3pRiMW-6" value="C5 Membership" style="rounded=0;whiteSpace=wrap;html=1;strokeColor=#009900;" parent="1" vertex="1">
          <mxGeometry x="730" y="590" width="120" height="60" as="geometry" />
        </mxCell>
        <mxCell id="XeDVgy5xD-qjJG3pRiMW-7" value="crm-sup:P2 was the membership group of" style="rounded=0;whiteSpace=wrap;html=1;strokeColor=#FFFFFF;" parent="1" vertex="1">
          <mxGeometry x="920" y="600" width="120" height="40" as="geometry" />
        </mxCell>
        <mxCell id="HaArOUJg7RB3OTcuF8nw-1" value="E21 Person" style="rounded=0;whiteSpace=wrap;html=1;" parent="1" vertex="1">
          <mxGeometry x="730" y="390" width="120" height="60" as="geometry" />
        </mxCell>
        <mxCell id="HaArOUJg7RB3OTcuF8nw-2" value="" style="endArrow=classic;html=1;rounded=0;entryX=0.5;entryY=1;entryDx=0;entryDy=0;exitX=0.5;exitY=0;exitDx=0;exitDy=0;" parent="1" source="XeDVgy5xD-qjJG3pRiMW-6" target="HaArOUJg7RB3OTcuF8nw-1" edge="1">
          <mxGeometry width="50" height="50" relative="1" as="geometry">
            <mxPoint x="740" y="630" as="sourcePoint" />
            <mxPoint x="500" y="630" as="targetPoint" />
          </mxGeometry>
        </mxCell>
        <mxCell id="HaArOUJg7RB3OTcuF8nw-3" value="sdh-so:P1 was membership of" style="rounded=0;whiteSpace=wrap;html=1;strokeColor=#FFFFFF;" parent="1" vertex="1">
          <mxGeometry x="720" y="500" width="140" height="40" as="geometry" />
        </mxCell>
      </root>
    </mxGraphModel>
  </diagram>
</mxfile>
